<svg width="12" height="16" viewBox="0 0 12 16" fill="none" xmlns="http://www.w3.org/2000/svg">
<path d="M1.625 1H10.375C10.5408 1 10.6997 1.07145 10.8169 1.19863C10.9342 1.32582 11 1.49831 11 1.67818V14.6605C11.0001 14.7211 10.9852 14.7807 10.9568 14.8329C10.9285 14.8852 10.8877 14.9282 10.8388 14.9576C10.79 14.9869 10.7347 15.0015 10.6788 14.9999C10.623 14.9982 10.5686 14.9803 10.5212 14.948L6 11.8712L1.47875 14.9474C1.43148 14.9796 1.37712 14.9975 1.32131 14.9992C1.26551 15.0009 1.2103 14.9864 1.16143 14.9571C1.11256 14.9278 1.07182 14.8848 1.04343 14.8327C1.01504 14.7805 1.00004 14.7211 1 14.6605V1.67818C1 1.49831 1.06585 1.32582 1.18306 1.19863C1.30027 1.07145 1.45924 1 1.625 1Z" stroke="currentColor" stroke-width="2"/>
</svg>
