<svg width="21" height="20" viewBox="0 0 21 20" fill="none" xmlns="http://www.w3.org/2000/svg">
<path d="M2.88086 8.33333H17.8809M6.21419 2.5V4.16667M14.5475 2.5V4.16667M5.54753 17.5H15.2142C16.1476 17.5 16.6144 17.5 16.9709 17.3183C17.2844 17.1586 17.5394 16.9036 17.6992 16.59C17.8809 16.2335 17.8809 15.7667 17.8809 14.8333V6.83333C17.8809 5.89991 17.8809 5.4332 17.6992 5.07668C17.5394 4.76307 17.2844 4.50811 16.9709 4.34832C16.6144 4.16667 16.1476 4.16667 15.2142 4.16667H5.54753C4.61411 4.16667 4.14739 4.16667 3.79088 4.34832C3.47727 4.50811 3.2223 4.76307 3.06252 5.07668C2.88086 5.4332 2.88086 5.89991 2.88086 6.83333V14.8333C2.88086 15.7667 2.88086 16.2335 3.06252 16.59C3.2223 16.9036 3.47727 17.1586 3.79088 17.3183C4.14739 17.5 4.6141 17.5 5.54753 17.5Z" stroke="currentColor" stroke-width="2" stroke-linecap="round" stroke-linejoin="round"/>
</svg>
