<svg width="15" height="14" viewBox="0 0 15 14" fill="none" xmlns="http://www.w3.org/2000/svg">
<path d="M11.782 0.333557H5.718C5.10786 0.334263 4.52292 0.576951 4.09149 1.00838C3.66006 1.43981 3.41737 2.02476 3.41667 2.63489V3.00022H3.05133C2.4412 3.00093 1.85626 3.24362 1.42482 3.67505C0.993394 4.10648 0.750706 4.69142 0.75 5.30156V11.3656C0.750706 11.9757 0.993394 12.5606 1.42482 12.9921C1.85626 13.4235 2.4412 13.6662 3.05133 13.6669H9.11533C10.2807 13.6669 11.2367 12.7922 11.386 11.6669H11.782C12.3921 11.6662 12.9771 11.4235 13.4085 10.9921C13.8399 10.5606 14.0826 9.97569 14.0833 9.36556V2.63489C14.0826 2.02476 13.8399 1.43981 13.4085 1.00838C12.9771 0.576951 12.3921 0.334263 11.782 0.333557ZM12.75 9.36556C12.75 9.89889 12.316 10.3336 11.782 10.3336H11.4167V5.30156C11.416 4.69142 11.1733 4.10648 10.7418 3.67505C10.3104 3.24362 9.72547 3.00093 9.11533 3.00022H4.75V2.63489C4.75 2.10156 5.184 1.66689 5.718 1.66689H11.782C12.3153 1.66689 12.75 2.10089 12.75 2.63489V9.36556Z" fill="currentColor"/>
</svg>
