<svg width="24" height="24" viewBox="0 0 24 24" fill="none" xmlns="http://www.w3.org/2000/svg">
<rect width="24" height="24" fill="dtheme"/>
<g opacity="0.4">
<path d="M11.387 22.3301L2.34782 13.2909L11.393 4.24564L18.1695 4.24564L20.4323 6.50844L20.4323 13.2849L11.387 22.3301Z" stroke="currentColor" stroke-width="1.6" stroke-miterlimit="10"/>
<path d="M16.4825 7.07153L17.6079 8.19695" stroke="currentColor" stroke-width="1.6" stroke-miterlimit="10"/>
<path d="M15.912 12.1534L7.43549 13.8534" stroke="currentColor" stroke-width="1.6" stroke-miterlimit="10"/>
<path d="M10.4286 10.2919C10.9579 10.8211 11.8159 10.8211 12.3452 10.2919C12.8744 9.76267 12.8744 8.90461 12.3452 8.37538C11.8159 7.84614 10.9579 7.84614 10.4286 8.37538C9.89941 8.90461 9.89941 9.76266 10.4286 10.2919Z" fill="currentColor"/>
<path d="M11.2059 17.4166C11.6131 17.8237 12.2731 17.8237 12.6802 17.4166C13.0873 17.0095 13.0873 16.3495 12.6802 15.9423C12.2731 15.5352 11.6131 15.5352 11.2059 15.9423C10.7988 16.3495 10.7988 17.0095 11.2059 17.4166Z" fill="currentColor"/>
</g>
</svg>
