<svg width="14" height="12" viewBox="0 0 14 12" fill="none" xmlns="http://www.w3.org/2000/svg">
<path d="M5.46527 9H1.67969" stroke="currentColor" stroke-width="1.5" stroke-linecap="round" stroke-linejoin="round"/>
<path fill-rule="evenodd" clip-rule="evenodd" d="M12.6797 9C12.6797 10.1046 11.7843 11 10.6797 11C9.5751 11 8.67969 10.1046 8.67969 9C8.67969 7.89458 9.5751 7 10.6797 7C11.7843 7 12.6797 7.89458 12.6797 9Z" stroke="currentColor" stroke-width="1.5" stroke-linecap="round" stroke-linejoin="round"/>
<path d="M8.67969 3L12.6797 3" stroke="currentColor" stroke-width="1.5" stroke-linecap="round" stroke-linejoin="round"/>
<path fill-rule="evenodd" clip-rule="evenodd" d="M1.67969 3C1.67969 4.1054 2.57511 5 3.67969 5C4.78426 5 5.67969 4.1054 5.67969 3C5.67969 1.89542 4.78426 1 3.67969 1C2.57511 1 1.67969 1.89542 1.67969 3Z" stroke="currentColor" stroke-width="1.5" stroke-linecap="round" stroke-linejoin="round"/>
</svg>
