<svg width="14" height="19" viewBox="0 0 14 19" fill="none" xmlns="http://www.w3.org/2000/svg">
<path d="M7.00044 18.1667C8.65805 18.1667 10.2478 17.5082 11.4199 16.3361C12.592 15.164 13.2504 13.5743 13.2504 11.9167C13.2504 11.195 13.0588 10.5025 12.8338 9.85833C11.4446 11.2308 10.3896 11.9167 9.66711 11.9167C12.9963 6.08333 11.1671 3.58333 6.16711 0.25C6.58378 4.41667 3.83711 6.31167 2.71878 7.36417C1.80655 8.22223 1.17314 9.33456 0.90068 10.5569C0.628218 11.7793 0.72927 13.0554 1.19073 14.2196C1.6522 15.3839 2.45279 16.3826 3.4887 17.0864C4.52461 17.7902 5.74807 18.1666 7.00044 18.1667ZM7.59211 3.3625C10.2929 5.65417 10.3063 7.435 8.21961 11.0908C7.58545 12.2017 8.38795 13.5833 9.66711 13.5833C10.2404 13.5833 10.8204 13.4167 11.4329 13.0875C11.2514 13.7733 10.9131 14.4076 10.4447 14.9405C9.97637 15.4733 9.3907 15.8902 8.73384 16.1582C8.07698 16.4262 7.36686 16.5381 6.65941 16.4851C5.95195 16.432 5.26648 16.2154 4.65695 15.8524C4.04742 15.4894 3.53049 14.9898 3.14685 14.3931C2.76321 13.7963 2.52334 13.1186 2.44613 12.4134C2.36891 11.7082 2.45647 10.9947 2.70189 10.329C2.94731 9.66339 3.34391 9.06381 3.86045 8.5775C3.96545 8.47917 4.49794 8.00667 4.52128 7.98583C4.87461 7.66917 5.16544 7.38833 5.45294 7.08083C6.47794 5.9825 7.21461 4.76417 7.59128 3.3625H7.59211Z" fill="currentColor"/>
</svg>
