<svg width="20" height="18" viewBox="0 0 20 18" fill="none" xmlns="http://www.w3.org/2000/svg">
<path fill-rule="evenodd" clip-rule="evenodd" d="M13.3083 4.84759C13.6762 4.94606 13.9828 5.18032 14.1715 5.50724C14.5357 6.13806 14.3591 6.93501 13.7871 7.35849L12.3758 4.91442C12.668 4.78767 12.9934 4.76321 13.3083 4.84755V4.84759ZM4.51026 14.078L6.4798 12.9409L3.88507 8.45298L1.91835 9.58868C1.32179 9.9331 0.894131 10.4924 0.714483 11.1633C0.534443 11.8345 0.625029 12.5327 0.969444 13.1291C1.44925 13.9597 2.32226 14.4247 3.21878 14.4247C3.65812 14.4247 4.10312 14.313 4.51026 14.078ZM8.61917 16.6525L6.96523 13.7882L5.42148 14.6794L7.07503 17.544C7.32116 17.9696 7.86726 18.1159 8.29304 17.8702C8.49773 17.7519 8.6446 17.5595 8.70675 17.3286C8.76851 17.0975 8.73745 16.8576 8.61917 16.6526V16.6525ZM14.7695 11.0133L9.70198 2.23634C9.59651 2.05329 9.42308 1.95294 9.21331 1.95294C9.20937 1.95294 9.20523 1.95313 9.20128 1.95313C8.98605 1.95708 8.81187 2.06403 8.71093 2.25442C8.5328 2.59056 8.36105 2.94927 8.17933 3.32911C7.4146 4.92634 6.5548 6.72189 4.72272 7.95021L7.33362 12.4672C9.31144 11.4963 11.2959 11.6492 13.0605 11.7855C13.481 11.8181 13.8778 11.8486 14.2584 11.8625C14.474 11.8708 14.6532 11.7733 14.7642 11.5888C14.8755 11.4042 14.8771 11.1997 14.7696 11.0133L14.7695 11.0133ZM13.4956 2.00134C13.361 2.23485 13.441 2.53349 13.6745 2.66833C13.7485 2.71131 13.8325 2.73392 13.918 2.73388C14.0867 2.73388 14.2511 2.6463 14.3413 2.48966L15.3501 0.743095C15.4848 0.50958 15.4047 0.210947 15.1712 0.0761029C14.9375 -0.0587018 14.6391 0.0212983 14.5044 0.254814L13.4956 2.00134ZM19.3754 7.35685C19.3754 7.08739 19.1569 6.86857 18.8858 6.86857L16.8696 6.86876C16.6001 6.86876 16.3813 7.08739 16.3813 7.35704C16.3813 7.62669 16.6001 7.84532 16.8696 7.84532L18.8858 7.84513C19.1569 7.84513 19.3754 7.62669 19.3754 7.35685ZM18.2078 3.17677C18.0723 2.94325 17.7747 2.86325 17.5412 2.99806L15.7519 4.03075C15.5182 4.16579 15.4382 4.46423 15.573 4.69794C15.6051 4.75349 15.6478 4.80219 15.6987 4.84124C15.7496 4.88029 15.8076 4.90893 15.8696 4.92552C15.9316 4.94212 15.9962 4.94634 16.0598 4.93796C16.1234 4.92957 16.1847 4.90874 16.2402 4.87665L18.029 3.84376C18.2625 3.70892 18.3434 3.41028 18.2078 3.17677Z" fill="currentColor"/>
</svg>
