<svg width="8" height="12" viewBox="0 0 8 12" fill="none" xmlns="http://www.w3.org/2000/svg">
<path d="M6.85998 7.52663L3.99998 10.3933L1.13998 7.52663C1.01445 7.40109 0.844182 7.33057 0.666648 7.33057C0.489113 7.33057 0.31885 7.40109 0.193315 7.52663C0.0677787 7.65216 -0.00274658 7.82242 -0.00274658 7.99996C-0.00274658 8.17749 0.0677787 8.34776 0.193315 8.47329L3.52665 11.8066C3.58862 11.8691 3.66236 11.9187 3.7436 11.9526C3.82484 11.9864 3.91197 12.0038 3.99998 12.0038C4.08799 12.0038 4.17513 11.9864 4.25637 11.9526C4.3376 11.9187 4.41134 11.8691 4.47331 11.8066L7.80665 8.47329C7.86881 8.41113 7.91811 8.33734 7.95175 8.25613C7.98539 8.17491 8.00271 8.08787 8.00271 7.99996C8.00271 7.91205 7.98539 7.82501 7.95175 7.74379C7.91811 7.66258 7.86881 7.58879 7.80665 7.52663C7.74449 7.46447 7.67069 7.41516 7.58948 7.38152C7.50827 7.34788 7.42122 7.33057 7.33331 7.33057C7.24541 7.33057 7.15836 7.34788 7.07715 7.38152C6.99593 7.41516 6.92214 7.46447 6.85998 7.52663ZM1.13998 4.47329L3.99998 1.60663L6.85998 4.47329C6.92196 4.53578 6.99569 4.58537 7.07693 4.61922C7.15817 4.65307 7.24531 4.67049 7.33331 4.67049C7.42132 4.67049 7.50846 4.65307 7.5897 4.61922C7.67094 4.58537 7.74467 4.53578 7.80665 4.47329C7.86913 4.41132 7.91873 4.33758 7.95258 4.25634C7.98642 4.1751 8.00385 4.08797 8.00385 3.99996C8.00385 3.91195 7.98642 3.82481 7.95258 3.74357C7.91873 3.66234 7.86913 3.5886 7.80665 3.52663L4.47331 0.193293C4.41134 0.130807 4.3376 0.0812108 4.25637 0.047365C4.17513 0.0135192 4.08799 -0.00390625 3.99998 -0.00390625C3.91197 -0.00390625 3.82484 0.0135192 3.7436 0.047365C3.66236 0.0812108 3.58862 0.130807 3.52665 0.193293L0.193315 3.52663C0.0677787 3.65216 -0.00274658 3.82242 -0.00274658 3.99996C-0.00274658 4.17749 0.0677787 4.34776 0.193315 4.47329C0.31885 4.59883 0.489113 4.66935 0.666648 4.66935C0.844182 4.66935 1.01445 4.59883 1.13998 4.47329Z" fill="currentColor"/>
</svg>
