<svg width="20" height="20" viewBox="0 0 20 20" fill="none" xmlns="http://www.w3.org/2000/svg">
<g clip-path="url(#clip0_7346_6752)">
<path d="M14.6873 5.625C14.5342 7.69023 12.9685 9.375 11.2498 9.375C9.53104 9.375 7.96268 7.69063 7.81229 5.625C7.65604 3.47656 9.17947 1.875 11.2498 1.875C13.3201 1.875 14.8435 3.51562 14.6873 5.625Z" stroke="currentColor" stroke-width="2" stroke-linecap="round" stroke-linejoin="round"/>
<path d="M11.2499 11.875C7.8515 11.875 4.40228 13.75 3.764 17.2891C3.68588 17.7156 3.92846 18.125 4.37533 18.125H18.1249C18.5718 18.125 18.8132 17.7156 18.7363 17.2891C18.0976 13.75 14.6484 11.875 11.2499 11.875Z" stroke="currentColor" stroke-width="2" stroke-miterlimit="10"/>
<path d="M3.4375 6.875V11.25" stroke="currentColor" stroke-width="2" stroke-linecap="round" stroke-linejoin="round"/>
<path d="M5.625 9.0625H1.25" stroke="currentColor" stroke-width="2" stroke-linecap="round" stroke-linejoin="round"/>
</g>
<defs>
<clipPath id="clip0_7346_6752">
<rect width="20" height="20" fill="dtheme"/>
</clipPath>
</defs>
</svg>
