<svg width="124" height="28" viewBox="0 0 124 28" fill="none" xmlns="http://www.w3.org/2000/svg">
<rect width="124" height="28" rx="8.08731" fill="#1C133C"/>
<path fill-rule="evenodd" clip-rule="evenodd" d="M32.991 21.9989H31.8545L31.8526 22C30.689 22 29.6477 21.7593 28.7565 21.2859C28.4129 21.104 28.0947 20.8891 27.8104 20.6479C29.1885 19.6226 30.2576 18.2984 30.9875 16.7096C31.0276 16.6228 31.066 16.5366 31.103 16.4505C31.1308 16.7057 31.1784 16.9374 31.2439 17.1439C31.3607 17.5099 31.5399 17.7992 31.7766 18.0046C32.0207 18.2162 32.3155 18.3231 32.6529 18.3231H33.4279C34.1695 18.3231 34.8128 17.9503 35.3406 17.2149C35.8529 16.4991 36.2447 15.6529 36.5042 14.7004C36.7632 13.749 36.8948 12.9313 36.8948 12.2704C36.8948 11.7863 36.8367 11.3593 36.7224 11.0011C36.6056 10.6345 36.4258 10.348 36.1884 10.1504C35.945 9.94725 35.6421 9.84428 35.288 9.84428H34.5131C33.7703 9.84428 33.1313 10.217 32.6134 10.953C32.331 11.3525 32.0838 11.7975 31.8774 12.2749C31.7179 12.6448 31.5783 13.0455 31.4633 13.4669C31.404 13.6869 31.3558 13.8772 31.3175 14.0467C31.3155 14.0553 31.3134 14.0643 31.3113 14.0736C31.2993 14.1256 31.2849 14.1879 31.2724 14.2482C31.095 15.0149 30.8311 15.7828 30.4875 16.531C29.775 18.0818 28.7256 19.3685 27.3685 20.3541L27.3599 20.3596C27.2802 20.4179 27.1967 20.4761 27.1121 20.5315C25.8162 21.3945 24.2829 21.8321 22.555 21.8321H21.4186C20.2549 21.8321 19.2136 21.5915 18.3224 21.118C17.4319 20.6451 16.7336 19.969 16.246 19.1094C15.7566 18.2481 15.5087 17.239 15.5087 16.1096C15.5087 14.4732 15.8752 12.8552 16.5983 11.3011C17.3194 9.74857 18.3731 8.46249 19.7302 7.47805C21.0811 6.49753 22.6916 6 24.5178 6H25.6542C26.8179 6 27.8598 6.23617 28.751 6.70293C29.1051 6.88817 29.4308 7.107 29.72 7.35325C28.3412 8.3791 27.2697 9.70268 26.533 11.2887C26.4978 11.3643 26.4632 11.4404 26.4292 11.5171C26.4014 11.2686 26.3538 11.0397 26.2883 10.8332C26.1715 10.4666 25.9917 10.1806 25.7544 9.98251C25.5109 9.77936 25.2081 9.67638 24.8539 9.67638H24.079C23.3368 9.67638 22.6972 10.0491 22.1793 10.7851C21.6763 11.4981 21.2894 12.3443 21.0292 13.299C20.7703 14.2499 20.6387 15.0524 20.6387 15.6843C20.6387 16.1846 20.6961 16.6195 20.8105 16.976C20.9273 17.342 21.1065 17.6313 21.3432 17.8367C21.5873 18.0483 21.882 18.1552 22.2195 18.1552H22.9944C23.736 18.1552 24.38 17.7824 24.9071 17.047C25.1833 16.662 25.425 16.2378 25.6264 15.7856C25.8013 15.3944 25.9509 14.973 26.0708 14.5325L26.0751 14.5157C26.0856 14.4784 26.0954 14.4416 26.1052 14.4048L26.1054 14.4044C26.2024 14.0344 26.2809 13.6824 26.3384 13.3578C26.5102 12.7276 26.7444 12.0924 27.0342 11.4684C27.7554 9.91591 28.8091 8.62926 30.1699 7.64259C30.2521 7.58271 30.3355 7.52506 30.4183 7.47022C31.7136 6.60499 33.2394 6.16678 34.9537 6.16678H36.0902C37.2539 6.16678 38.2958 6.40295 39.1869 6.86971C40.0768 7.33534 40.7752 8.00693 41.2627 8.86656C41.7522 9.72899 42 10.7386 42 11.8663C42 13.5167 41.6379 15.142 40.9235 16.6978C40.2109 18.2492 39.1616 19.5353 37.8045 20.5208C36.4523 21.5013 34.8326 21.9989 32.991 21.9989ZM8.07644 21.6865H13.1439L16.5058 6.01619H12.3035L12.2293 6.24005C12.0643 6.70288 11.7967 7.10975 11.4259 7.4601C11.0551 7.811 10.4989 8.11713 9.75736 8.37793C9.01578 8.63929 8.03503 8.86707 6.81574 9.06071L6 12.844L9.31241 12.2619C9.57567 12.2172 9.7654 12.2474 9.88096 12.3515C9.9959 12.4561 10.0293 12.628 9.97984 12.8664L8.07644 21.6865Z" fill="white"/>
<path d="M49.5625 21.7902H46L50.6273 6.96967H55.0404L59.6678 21.7902H56.1052L52.884 10.7037H52.7769L49.5625 21.7902ZM49.0871 15.9575H56.5337V18.6785H49.0871V15.9575ZM61.5399 21.7902V10.6748H64.8145V21.7902H61.5399ZM63.1805 9.3795C62.7207 9.3795 62.3256 9.21541 61.9953 8.88741C61.6649 8.55453 61.4997 8.15408 61.4997 7.68614C61.4997 7.223 61.6649 6.82734 61.9953 6.49934C62.3256 6.16644 62.7207 6 63.1805 6C63.6449 6 64.0399 6.16644 64.3659 6.49934C64.6962 6.82734 64.8614 7.223 64.8614 7.68614C64.8614 8.15408 64.6962 8.55453 64.3659 8.88741C64.0399 9.21541 63.6449 9.3795 63.1805 9.3795ZM66.8273 9.87878V6.96967H78.4191V9.87878H74.2605V21.7902H70.9926V9.87878H66.8273ZM83.7253 22C82.6444 22 81.7163 21.7612 80.9391 21.2836C80.1671 20.8011 79.5708 20.1306 79.1511 19.2719C78.7356 18.4083 78.5283 17.4072 78.5283 16.2686C78.5283 15.1253 78.7356 14.1242 79.1511 13.2655C79.5708 12.4019 80.1671 11.7313 80.9391 11.2537C81.7163 10.7713 82.6444 10.5301 83.7253 10.5301C84.8052 10.5301 85.7317 10.7713 86.5037 11.2537C87.2809 11.7313 87.8772 12.4019 88.2918 13.2655C88.7115 14.1242 88.9213 15.1253 88.9213 16.2686C88.9213 17.4072 88.7115 18.4083 88.2918 19.2719C87.8772 20.1306 87.2809 20.8011 86.5037 21.2836C85.7317 21.7612 84.8052 22 83.7253 22ZM83.7449 19.3297C84.1381 19.3297 84.4708 19.1995 84.743 18.939C85.0151 18.6785 85.2224 18.3166 85.3657 17.8535C85.5133 17.3903 85.5867 16.8548 85.5867 16.247C85.5867 15.6294 85.5133 15.0891 85.3657 14.626C85.2224 14.1628 85.0151 13.801 84.743 13.5405C84.4708 13.28 84.1381 13.1497 83.7449 13.1497C83.3388 13.1497 82.995 13.28 82.7135 13.5405C82.4371 13.801 82.2247 14.1628 82.078 14.626C81.9347 15.0891 81.863 15.6294 81.863 16.247C81.863 16.8548 81.9347 17.3903 82.078 17.8535C82.2247 18.3166 82.4371 18.6785 82.7135 18.939C82.995 19.1995 83.3388 19.3297 83.7449 19.3297ZM95.7775 22C94.6975 22 93.7685 21.7612 92.9922 21.2836C92.2193 20.8011 91.6239 20.1306 91.2041 19.2719C90.7887 18.4083 90.5814 17.4072 90.5814 16.2686C90.5814 15.1253 90.7887 14.1242 91.2041 13.2655C91.6239 12.4019 92.2193 11.7313 92.9922 11.2537C93.7685 10.7713 94.6975 10.5301 95.7775 10.5301C96.8583 10.5301 97.7847 10.7713 98.5568 11.2537C99.3339 11.7313 99.9294 12.4019 100.345 13.2655C100.765 14.1242 100.974 15.1253 100.974 16.2686C100.974 17.4072 100.765 18.4083 100.345 19.2719C99.9294 20.1306 99.3339 20.8011 98.5568 21.2836C97.7847 21.7612 96.8583 22 95.7775 22ZM95.7979 19.3297C96.1903 19.3297 96.523 19.1995 96.7952 18.939C97.0682 18.6785 97.2755 18.3166 97.4179 17.8535C97.5655 17.3903 97.6397 16.8548 97.6397 16.247C97.6397 15.6294 97.5655 15.0891 97.4179 14.626C97.2755 14.1628 97.0682 13.801 96.7952 13.5405C96.523 13.28 96.1903 13.1497 95.7979 13.1497C95.3919 13.1497 95.0481 13.28 94.7666 13.5405C94.4893 13.801 94.2778 14.1628 94.1302 14.626C93.9877 15.0891 93.9161 15.6294 93.9161 16.247C93.9161 16.8548 93.9877 17.3903 94.1302 17.8535C94.2778 18.3166 94.4893 18.6785 94.7666 18.939C95.0481 19.1995 95.3919 19.3297 95.7979 19.3297ZM106.304 6.96967V21.7902H103.029V6.96967H106.304ZM117.745 14.0688L114.739 14.1556C114.707 13.9241 114.623 13.719 114.484 13.5405C114.345 13.3571 114.165 13.2149 113.941 13.1136C113.723 13.0074 113.468 12.9544 113.178 12.9544C112.799 12.9544 112.475 13.0363 112.207 13.2004C111.944 13.3644 111.814 13.5863 111.819 13.8662C111.814 14.0833 111.895 14.2714 112.06 14.4306C112.229 14.5898 112.531 14.7176 112.963 14.8141L114.946 15.2194C115.973 15.4317 116.736 15.7838 117.236 16.2759C117.741 16.768 117.995 17.4193 118 18.2298C117.995 18.9921 117.785 19.6553 117.37 20.2198C116.959 20.7843 116.397 21.2233 115.682 21.5369C114.968 21.8457 114.151 22 113.231 22C111.763 22 110.605 21.6744 109.756 21.0231C108.912 20.367 108.43 19.489 108.31 18.389L111.544 18.3022C111.616 18.7074 111.801 19.0161 112.1 19.2284C112.399 19.4407 112.781 19.5468 113.245 19.5468C113.665 19.5468 114.006 19.4624 114.27 19.2935C114.533 19.1247 114.667 18.9003 114.671 18.6206C114.667 18.3697 114.564 18.1695 114.363 18.0199C114.162 17.8656 113.848 17.7449 113.419 17.6581L111.624 17.289C110.593 17.0864 109.825 16.7125 109.321 16.1673C108.817 15.6174 108.567 14.9178 108.571 14.0688C108.567 13.3258 108.749 12.6914 109.12 12.1655C109.491 11.6348 110.017 11.2296 110.7 10.9498C111.384 10.67 112.189 10.5301 113.118 10.5301C114.511 10.5301 115.609 10.8461 116.412 11.4781C117.216 12.1052 117.66 12.9688 117.745 14.0688Z" fill="white"/>
</svg>
