<svg width="16" height="16" viewBox="0 0 16 16" fill="none" xmlns="http://www.w3.org/2000/svg">
<path d="M6.46527 11H2.67969" stroke="white" stroke-width="1.5" stroke-linecap="round" stroke-linejoin="round"/>
<path fill-rule="evenodd" clip-rule="evenodd" d="M13.6797 11C13.6797 12.1046 12.7843 13 11.6797 13C10.5751 13 9.67969 12.1046 9.67969 11C9.67969 9.89458 10.5751 9 11.6797 9C12.7843 9 13.6797 9.89458 13.6797 11Z" stroke="white" stroke-width="1.5" stroke-linecap="round" stroke-linejoin="round"/>
<path d="M9.67969 5L13.6797 5" stroke="white" stroke-width="1.5" stroke-linecap="round" stroke-linejoin="round"/>
<path fill-rule="evenodd" clip-rule="evenodd" d="M2.67969 5C2.67969 6.1054 3.57511 7 4.67969 7C5.78426 7 6.67969 6.1054 6.67969 5C6.67969 3.89542 5.78426 3 4.67969 3C3.57511 3 2.67969 3.89542 2.67969 5Z" stroke="white" stroke-width="1.5" stroke-linecap="round" stroke-linejoin="round"/>
</svg>
