<svg width="20" height="20" viewBox="0 0 20 20" fill="none" xmlns="http://www.w3.org/2000/svg">
<g clip-path="url(#clip0_7287_21859)">
<path d="M10.0004 19.1667C11.658 19.1667 13.2478 18.5082 14.4199 17.3361C15.592 16.164 16.2504 14.5743 16.2504 12.9167C16.2504 12.195 16.0588 11.5025 15.8338 10.8583C14.4446 12.2308 13.3896 12.9167 12.6671 12.9167C15.9963 7.08333 14.1671 4.58333 9.16711 1.25C9.58378 5.41667 6.83711 7.31167 5.71878 8.36417C4.80655 9.22223 4.17314 10.3346 3.90068 11.5569C3.62822 12.7793 3.72927 14.0554 4.19073 15.2196C4.6522 16.3839 5.45279 17.3826 6.4887 18.0864C7.52461 18.7902 8.74807 19.1666 10.0004 19.1667ZM10.5921 4.3625C13.2929 6.65417 13.3063 8.435 11.2196 12.0908C10.5854 13.2017 11.3879 14.5833 12.6671 14.5833C13.2404 14.5833 13.8204 14.4167 14.4329 14.0875C14.2514 14.7733 13.9131 15.4076 13.4447 15.9405C12.9764 16.4733 12.3907 16.8902 11.7338 17.1582C11.077 17.4262 10.3669 17.5381 9.65941 17.4851C8.95195 17.432 8.26648 17.2154 7.65695 16.8524C7.04742 16.4894 6.53049 15.9898 6.14685 15.3931C5.76321 14.7963 5.52334 14.1186 5.44613 13.4134C5.36891 12.7082 5.45647 11.9947 5.70189 11.329C5.94731 10.6634 6.34391 10.0638 6.86045 9.5775C6.96545 9.47917 7.49794 9.00667 7.52128 8.98583C7.87461 8.66917 8.16544 8.38833 8.45294 8.08083C9.47794 6.9825 10.2146 5.76417 10.5913 4.3625H10.5921Z" fill="#1C133C"/>
</g>
<defs>
<clipPath id="clip0_7287_21859">
<rect width="20" height="20" fill="white"/>
</clipPath>
</defs>
</svg>
