<svg width="20" height="20" viewBox="0 0 20 20" fill="none" xmlns="http://www.w3.org/2000/svg">
<path fill-rule="evenodd" clip-rule="evenodd" d="M13.3083 5.84759C13.6762 5.94606 13.9828 6.18032 14.1715 6.50724C14.5357 7.13806 14.3591 7.93501 13.7871 8.35849L12.3758 5.91442C12.668 5.78767 12.9934 5.76321 13.3083 5.84755V5.84759ZM4.51026 15.078L6.4798 13.9409L3.88507 9.45298L1.91835 10.5887C1.32179 10.9331 0.894131 11.4924 0.714483 12.1633C0.534443 12.8345 0.625029 13.5327 0.969444 14.1291C1.44925 14.9597 2.32226 15.4247 3.21878 15.4247C3.65812 15.4247 4.10312 15.313 4.51026 15.078ZM8.61917 17.6525L6.96523 14.7882L5.42148 15.6794L7.07503 18.544C7.32116 18.9696 7.86726 19.1159 8.29304 18.8702C8.49773 18.7519 8.6446 18.5595 8.70675 18.3286C8.76851 18.0975 8.73745 17.8576 8.61917 17.6526V17.6525ZM14.7695 12.0133L9.70198 3.23634C9.59651 3.05329 9.42308 2.95294 9.21331 2.95294C9.20937 2.95294 9.20523 2.95313 9.20128 2.95313C8.98605 2.95708 8.81187 3.06403 8.71093 3.25442C8.5328 3.59056 8.36105 3.94927 8.17933 4.32911C7.4146 5.92634 6.5548 7.72189 4.72272 8.95021L7.33362 13.4672C9.31144 12.4963 11.2959 12.6492 13.0605 12.7855C13.481 12.8181 13.8778 12.8486 14.2584 12.8625C14.474 12.8708 14.6532 12.7733 14.7642 12.5888C14.8755 12.4042 14.8771 12.1997 14.7696 12.0133L14.7695 12.0133ZM13.4956 3.00134C13.361 3.23485 13.441 3.53349 13.6745 3.66833C13.7485 3.71131 13.8325 3.73392 13.918 3.73388C14.0867 3.73388 14.2511 3.6463 14.3413 3.48966L15.3501 1.7431C15.4848 1.50958 15.4047 1.21095 15.1712 1.0761C14.9375 0.941298 14.6391 1.0213 14.5044 1.25481L13.4956 3.00134ZM19.3754 8.35685C19.3754 8.08739 19.1569 7.86857 18.8858 7.86857L16.8696 7.86876C16.6001 7.86876 16.3813 8.08739 16.3813 8.35704C16.3813 8.62669 16.6001 8.84532 16.8696 8.84532L18.8858 8.84513C19.1569 8.84513 19.3754 8.62669 19.3754 8.35685ZM18.2078 4.17677C18.0723 3.94325 17.7747 3.86325 17.5412 3.99806L15.7519 5.03075C15.5182 5.16579 15.4382 5.46423 15.573 5.69794C15.6051 5.75349 15.6478 5.80219 15.6987 5.84124C15.7496 5.88029 15.8076 5.90893 15.8696 5.92552C15.9316 5.94212 15.9962 5.94634 16.0598 5.93796C16.1234 5.92957 16.1847 5.90874 16.2402 5.87665L18.029 4.84376C18.2625 4.70892 18.3434 4.41028 18.2078 4.17677Z" fill="#1C133C"/>
</svg>
